M48
;DRILL file {KiCad 4.0.0~rc1a-stable} date Thu Dec 17 17:43:43 2015
;FORMAT={-:-/ absolute / metric / decimal}
FMAT,2
METRIC,TZ
T1C0.813
T2C1.016
%
G90
G05
M71
T1
X-14.224Y-64.77
X-11.684Y-64.77
X-9.144Y-64.77
X-6.604Y-64.77
X-5.08Y-16.51
X-4.064Y-64.77
X-2.54Y-16.51
X-1.524Y-64.77
X0.Y-16.51
X1.016Y-64.77
X2.54Y-16.51
X3.556Y-64.77
X5.08Y-16.51
X7.62Y-16.51
X7.62Y-64.77
X10.16Y-64.77
X12.7Y-16.51
X12.7Y-64.77
X15.24Y-16.51
X15.24Y-64.77
X17.78Y-16.51
X17.78Y-64.77
X20.32Y-16.51
X20.32Y-64.77
X22.86Y-16.51
X22.86Y-64.77
X25.4Y-16.51
X25.4Y-64.77
X27.94Y-16.51
X30.48Y-16.51
X30.48Y-64.77
X33.02Y-64.77
X35.56Y-16.51
X35.56Y-64.77
X38.1Y-16.51
X38.1Y-64.77
X40.64Y-16.51
X40.64Y-64.77
X43.18Y-16.51
X43.18Y-64.77
X45.72Y-16.51
X45.72Y-64.77
X48.26Y-16.51
X48.26Y-64.77
X50.8Y-16.51
X53.34Y-16.51
X55.88Y-21.59
X55.88Y-24.13
X55.88Y-26.67
X55.88Y-29.21
X55.88Y-31.75
X55.88Y-34.29
X55.88Y-36.83
X55.88Y-39.37
X55.88Y-41.91
X55.88Y-44.45
X55.88Y-46.99
X55.88Y-49.53
X55.88Y-52.07
X55.88Y-54.61
X55.88Y-57.15
X55.88Y-59.69
X55.88Y-62.23
X55.88Y-64.77
T2
X-1.27Y-72.39
X-1.27Y-74.93
X0.Y0.
X1.27Y-72.39
X1.27Y-74.93
X2.54Y0.
X3.81Y-72.39
X3.81Y-74.93
X5.08Y0.
X6.35Y-72.39
X6.35Y-74.93
X7.62Y0.
X8.89Y-72.39
X8.89Y-74.93
X10.16Y0.
X12.7Y0.
X15.24Y0.
X17.78Y0.
X20.32Y0.
X22.86Y0.
X25.4Y0.
X27.94Y0.
X30.48Y0.
X33.02Y0.
X35.56Y0.
X38.1Y0.
X40.64Y0.
X43.18Y0.
T0
M30
